<svg xmlns="http://www.w3.org/2000/svg" viewBox="0 0 1200 800" role="img" aria-label="AI health dashboard illustration">
  <defs>
    <linearGradient id="bg" x1="0" x2="1">
      <stop offset="0%" stop-color="#07122a" />
      <stop offset="100%" stop-color="#071827" />
    </linearGradient>
  </defs>
  <rect width="100%" height="100%" fill="url(#bg)" rx="24" />
  <g transform="translate(80,80)">
    <rect x="0" y="0" width="520" height="360" rx="18" fill="#0f172a" stroke="#144055" stroke-width="2" />
    <g transform="translate(28,28)">
      <rect x="0" y="0" width="420" height="28" rx="6" fill="#e6f0f8" opacity="0.06" />
      <rect x="0" y="50" width="420" height="180" rx="12" fill="#0b2540" opacity="0.12" />
      <circle cx="340" cy="140" r="36" fill="#60a5fa" opacity="0.14" />
      <rect x="12" y="52" width="140" height="120" rx="10" fill="#081827" stroke="#12314a" />
    </g>
  </g>
  <g transform="translate(640,120)">
    <rect x="0" y="0" width="420" height="540" rx="18" fill="#071226" stroke="#12314a" stroke-width="1" />
    <g transform="translate(30,28)" fill="#9fb0bd">
      <rect x="0" y="0" width="360" height="22" rx="6" opacity="0.06" />
      <rect x="0" y="44" width="320" height="14" rx="6" opacity="0.04" />
    </g>
    <g transform="translate(84,110)">
      <circle cx="56" cy="56" r="56" fill="#7dd3fc" opacity="0.12" />
      <path d="M10 56c10-28 48-48 86-36 40 13 56 56 34 84-18 20-56 24-84 20-25-4-43-34-36-68z" fill="#60a5fa" opacity="0.08" />
    </g>
  </g>
  <g transform="translate(120,500)">
    <rect x="0" y="0" width="960" height="220" rx="24" fill="#071226" opacity="0.06" />
    <g transform="translate(48,36)">
      <rect x="0" y="0" width="380" height="18" rx="6" fill="#e6f0f8" opacity="0.04" />
      <rect x="0" y="36" width="260" height="18" rx="6" fill="#e6f0f8" opacity="0.03" />
    </g>
  </g>
</svg>